<svg width="16" height="18" viewBox="0 0 16 18" fill="none" xmlns="http://www.w3.org/2000/svg">
<path d="M15.65 9.02106C15.65 5.53004 13.291 2.48551 9.90901 1.61715C9.58558 1.53277 9.25511 1.72965 9.17425 2.05309C9.08987 2.37652 9.28675 2.70699 9.61019 2.78785C12.4543 3.51559 14.4407 6.08199 14.4407 9.02106C14.4407 11.6121 12.8973 13.9078 10.5875 14.9168L11.1465 13.616C11.2766 13.3101 11.136 12.955 10.8301 12.8214C10.5242 12.6914 10.1692 12.832 10.0356 13.1379L8.94573 15.6761C8.81565 15.982 8.95628 16.3371 9.26214 16.4707L11.8004 17.5605C12.1801 17.6941 12.4965 17.4726 12.595 17.2441C12.725 16.9382 12.5844 16.5832 12.2785 16.4496L11.1746 15.975C13.8641 14.7586 15.65 12.0586 15.65 9.02106Z" fill="white"/>
<path d="M6.3969 15.2543C3.55276 14.523 1.56643 11.9601 1.56643 9.02106C1.56643 6.4652 3.0676 4.19762 5.32463 3.16754L4.80081 4.38395C4.67073 4.68981 4.80432 5.05895 5.11721 5.17848C5.48284 5.31559 5.79221 5.15035 5.91174 4.86207L7.00159 2.32027C7.10706 2.07418 7.10354 1.70504 6.68518 1.52574L4.1469 0.4359C3.84104 0.305821 3.48596 0.446446 3.35237 0.752306C3.22229 1.05817 3.36292 1.41324 3.66877 1.54684L4.85002 2.05309C2.15002 3.27301 0.357056 5.97652 0.357056 9.02106C0.357056 12.5121 2.71956 15.5531 6.09807 16.425C6.50588 16.5304 6.76252 16.2632 6.83284 15.989C6.9137 15.6656 6.72034 15.3386 6.3969 15.2543Z" fill="white"/>
<path d="M9.42736 11.2992C9.73673 10.9757 9.89142 10.5679 9.89142 10.0828C9.89142 9.86129 9.85275 9.65738 9.77892 9.46754C9.70509 9.2777 9.59962 9.11598 9.46251 8.97535C9.3254 8.83824 9.14611 8.72223 8.92814 8.62379C8.81212 8.57457 8.58009 8.50426 8.22501 8.41637V6.3984C8.45353 6.4441 8.63282 6.54254 8.76642 6.6902C8.8965 6.83785 8.98439 7.04879 9.02658 7.32301L9.75079 7.21402C9.68751 6.77106 9.5047 6.41949 9.19884 6.16637C8.95978 5.96598 8.63634 5.84645 8.22853 5.80777V5.47379H7.81368V5.80777C7.34962 5.85348 6.99806 5.98356 6.76251 6.19098C6.40743 6.50035 6.23165 6.90465 6.23165 7.40387C6.23165 7.68512 6.29142 7.93473 6.41447 8.15621C6.534 8.3777 6.70626 8.54996 6.93126 8.67301C7.23361 8.84176 7.52892 8.95426 7.8172 9.00699V11.2394C7.54298 11.2113 7.30392 11.0707 7.10704 10.8211C6.96993 10.6453 6.8715 10.3675 6.81876 9.99137L6.11212 10.125C6.13673 10.4871 6.23165 10.7964 6.38986 11.0496C6.54806 11.3027 6.7379 11.4855 6.95939 11.598C7.17736 11.7105 7.46564 11.7879 7.81368 11.8336V12.5332H8.22853V11.823C8.72072 11.7984 9.1215 11.6226 9.42736 11.2992ZM7.8172 8.32848C7.49728 8.23356 7.27228 8.10348 7.13868 7.94176C7.00509 7.78004 6.93829 7.57965 6.93829 7.34059C6.93829 7.09801 7.01564 6.89059 7.17384 6.71481C7.33204 6.53902 7.5465 6.43004 7.8172 6.38785V8.32848ZM8.90353 10.8808C8.72423 11.0847 8.49923 11.2007 8.22853 11.2359V9.10192C8.6047 9.22496 8.85782 9.36207 8.98439 9.51676C9.11095 9.67145 9.17423 9.87535 9.17423 10.132C9.17072 10.4273 9.08282 10.6804 8.90353 10.8808Z" fill="white"/>
</svg>
