<svg width="14" height="14" viewBox="0 0 14 14" fill="none" xmlns="http://www.w3.org/2000/svg">
<g clip-path="url(#clip0_2_113)">
<path d="M13.8136 4.26817L7.4498 10.6318C7.33051 10.7511 7.16862 10.8182 6.99985 10.8182C6.83105 10.8182 6.6692 10.7511 6.54986 10.6318L0.186391 4.26813C-0.0621303 4.01961 -0.0621303 3.6167 0.186391 3.36818C0.43487 3.1197 0.837815 3.11966 1.08634 3.36818L6.99985 9.28182L12.9137 3.36818C13.0379 3.24392 13.2008 3.18181 13.3637 3.18181C13.5265 3.18181 13.6894 3.24392 13.8137 3.36822C14.0621 3.61675 14.0621 4.01965 13.8136 4.26817Z" fill="white"/>
</g>
<defs>
<clipPath id="clip0_2_113">
<rect width="14" height="14" fill="white" transform="matrix(1 0 0 -1 0 14)"/>
</clipPath>
</defs>
</svg>
