<svg width="12" height="14" viewBox="0 0 12 14" fill="none" xmlns="http://www.w3.org/2000/svg">
<path d="M8.19334 9.85998L6.66667 11.3933V3.66665C6.66667 3.48984 6.59643 3.32027 6.47141 3.19524C6.34638 3.07022 6.17682 2.99998 6 2.99998C5.82319 2.99998 5.65362 3.07022 5.5286 3.19524C5.40358 3.32027 5.33334 3.48984 5.33334 3.66665V11.3933L3.80667 9.85998C3.68114 9.73444 3.51087 9.66392 3.33334 9.66392C3.1558 9.66392 2.98554 9.73444 2.86 9.85998C2.73447 9.98552 2.66394 10.1558 2.66394 10.3333C2.66394 10.5108 2.73447 10.6811 2.86 10.8066L5.52667 13.4733C5.59007 13.534 5.66484 13.5816 5.74667 13.6133C5.82647 13.6486 5.91276 13.6668 6 13.6668C6.08725 13.6668 6.17354 13.6486 6.25334 13.6133C6.33517 13.5816 6.40994 13.534 6.47334 13.4733L9.14 10.8066C9.26554 10.6811 9.33607 10.5108 9.33607 10.3333C9.33607 10.1558 9.26554 9.98552 9.14 9.85998C9.07784 9.79782 9.00405 9.74851 8.92284 9.71487C8.84162 9.68123 8.75458 9.66392 8.66667 9.66392C8.48914 9.66392 8.31887 9.73444 8.19334 9.85998V9.85998ZM10.6667 0.333313H1.33334C1.15653 0.333313 0.986958 0.403551 0.861934 0.528575C0.73691 0.653599 0.666672 0.823169 0.666672 0.99998C0.666672 1.17679 0.73691 1.34636 0.861934 1.47138C0.986958 1.59641 1.15653 1.66665 1.33334 1.66665H10.6667C10.8435 1.66665 11.0131 1.59641 11.1381 1.47138C11.2631 1.34636 11.3333 1.17679 11.3333 0.99998C11.3333 0.823169 11.2631 0.653599 11.1381 0.528575C11.0131 0.403551 10.8435 0.333313 10.6667 0.333313V0.333313Z" fill="white"/>
</svg>
